<?xml version="1.0" encoding="UTF-8" standalone="no"?>
<svg
   height="24"
   viewBox="0 -960 960 960"
   width="24"
   version="1.1"
   id="svg1"
   sodipodi:docname="shopCart.svg"
   inkscape:version="1.3 (0e150ed6c4, 2023-07-21)"
   xmlns:inkscape="http://www.inkscape.org/namespaces/inkscape"
   xmlns:sodipodi="http://sodipodi.sourceforge.net/DTD/sodipodi-0.dtd"
   xmlns="http://www.w3.org/2000/svg"
   xmlns:svg="http://www.w3.org/2000/svg">
  <defs
     id="defs1" />
  <sodipodi:namedview
     id="namedview1"
     pagecolor="#ffffff"
     bordercolor="#000000"
     borderopacity="0.25"
     inkscape:showpageshadow="2"
     inkscape:pageopacity="0.0"
     inkscape:pagecheckerboard="0"
     inkscape:deskcolor="#d1d1d1"
     inkscape:zoom="16.1875"
     inkscape:cx="2.2548263"
     inkscape:cy="19.057915"
     inkscape:window-width="1920"
     inkscape:window-height="991"
     inkscape:window-x="-9"
     inkscape:window-y="-9"
     inkscape:window-maximized="1"
     inkscape:current-layer="svg1" />
  <path
     d="M200-80q-33 0-56.5-23.5T120-160v-480q0-33 23.5-56.5T200-720h80q0-83 58.5-141.5T480-920q83 0 141.5 58.5T680-720h80q33 0 56.5 23.5T840-640v480q0 33-23.5 56.5T760-80H200Zm280-320q83 0 141.5-58.5T680-600h-80q0 50-35 85t-85 35q-50 0-85-35t-35-85h-80q0 83 58.5 141.5T480-400ZM360-720h240q0-50-35-85t-85-35q-50 0-85 35t-35 85Z"
     id="path1"
     style="fill:#053b50;fill-opacity:1" />
  <path
     style="display:inline;fill:none;fill-opacity:1;stroke:#64ccc5;stroke-width:84;stroke-linecap:butt;stroke-dasharray:none;stroke-opacity:1;paint-order:normal"
     id="path2"
     inkscape:label="semi1"
     sodipodi:type="arc"
     sodipodi:cx="-480"
     sodipodi:cy="720"
     sodipodi:rx="160"
     sodipodi:ry="160"
     sodipodi:start="0"
     sodipodi:end="3.1415927"
     sodipodi:open="true"
     sodipodi:arc-type="arc"
     d="m -320,720 a 160,160 0 0 1 -80,138.55577 160,160 0 0 1 -160,-10e-6 160,160 0 0 1 -80,-138.55576"
     transform="scale(-1)" />
  <path
     style="display:inline;fill:none;fill-opacity:1;stroke:#64ccc5;stroke-width:84;stroke-linecap:butt;stroke-dasharray:none;stroke-opacity:1;paint-order:normal"
     id="path2-9"
     inkscape:label="semi2"
     sodipodi:type="arc"
     sodipodi:cx="-480"
     sodipodi:cy="-600"
     sodipodi:rx="160"
     sodipodi:ry="160"
     sodipodi:start="0"
     sodipodi:end="3.1415927"
     sodipodi:open="true"
     sodipodi:arc-type="arc"
     d="m -320,-600 a 160,160 0 0 1 -80,138.55577 160,160 0 0 1 -160,-10e-6 A 160,160 0 0 1 -642,-600"
     transform="scale(-1,1)" />
</svg>
