<svg height="24" viewBox="0 -960 960 960" width="24" xmlns="http://www.w3.org/2000/svg"><path d="M200-80q-33 0-56.5-23.5T120-160v-480q0-33 23.5-56.5T200-720h80q0-83 58.5-141.5T480-920q83 0 141.5 58.5T680-720h80q33 0 56.5 23.5T840-640v480q0 33-23.5 56.5T760-80H200zm280-320q83 0 141.5-58.5T680-600h-80q0 50-35 85t-85 35q-50 0-85-35t-35-85h-80q0 83 58.5 141.5T480-400zM360-720h240q0-50-35-85t-85-35q-50 0-85 35t-35 85z" fill="#053b50"/><path d="M320-720a160 160 0 0180-138.556 160 160 0 01160 0A160 160 0 01640-720M320-600a160 160 0 0080 138.556 160 160 0 00160 0A160 160 0 00642-600" fill="none" stroke="#64ccc5" stroke-width="84"/></svg>